<svg width="1406" height="331" viewBox="0 0 1406 331" fill="none" xmlns="http://www.w3.org/2000/svg">
<path d="M110.806 87.9929H215.094C227.693 87.9929 237.907 98.2067 237.907 110.806V168.557C230.545 167.016 222.914 166.206 215.095 166.206H166.21V237.904H215.095C236.693 237.904 254.203 255.413 254.203 277.012V325.898H325.901V277.012C325.901 225.051 290.135 181.444 241.879 169.465H325.9V110.806C325.9 49.6095 276.29 0 215.094 0H110.806C49.6095 0 0 49.6095 0 110.806V215.094C0 276.29 49.6095 325.9 110.806 325.9L166.21 325.897V237.907H110.806C98.2067 237.907 87.9929 227.693 87.9929 215.094V110.806C87.9929 98.2067 98.2067 87.9929 110.806 87.9929Z" fill="#FF7932"></path>
<path d="M423.398 161.09C423.398 204.085 446.85 235.355 487.891 235.355C508.272 235.355 526.42 227.258 535.075 213.298V295.66H568.857V93.8042H537.588L535.354 114.744C526.978 98.8297 508.831 89.6164 487.891 89.6164C449.084 89.6164 423.398 117.815 423.398 161.09ZM457.459 162.765C457.459 138.196 471.977 120.607 495.709 120.607C519.44 120.607 534.796 137.917 534.796 162.765C534.796 187.613 519.44 204.643 495.709 204.643C471.977 204.643 457.459 187.334 457.459 162.765Z" fill="#233441"></path>
<path d="M631.435 235.355C652.933 235.355 671.639 225.583 677.502 211.344L680.015 231.725H709.888V147.967C709.888 109.718 686.995 89.6164 649.862 89.6164C612.45 89.6164 587.881 109.16 587.881 139.033H616.917C616.917 124.515 628.085 116.14 648.187 116.14C665.497 116.14 676.664 123.678 676.664 142.384V145.455L635.344 148.526C602.679 151.039 584.252 166.953 584.252 192.359C584.252 218.324 602.12 235.355 631.435 235.355ZM642.603 209.669C627.247 209.669 618.872 203.527 618.872 190.963C618.872 179.795 626.968 172.816 648.187 170.861L676.944 168.628V175.887C676.944 197.105 663.542 209.669 642.603 209.669Z" fill="#233441"></path>
<path d="M815.94 93.2458C810.356 91.8499 805.61 91.2915 800.863 91.2915C782.437 91.2915 769.315 100.505 763.452 114.185L761.497 94.0834H729.39V231.725H763.452V164.719C763.452 137.917 778.807 124.795 803.376 124.795H815.94V93.2458Z" fill="#233441"></path>
<path d="M860.624 235.355C882.121 235.355 900.827 225.583 906.69 211.344L909.203 231.725H939.077V147.967C939.077 109.718 916.183 89.6164 879.05 89.6164C841.639 89.6164 817.07 109.16 817.07 139.033H846.106C846.106 124.515 857.273 116.14 877.375 116.14C894.685 116.14 905.853 123.678 905.853 142.384V145.455L864.532 148.526C831.867 151.039 813.44 166.953 813.44 192.359C813.44 218.324 831.308 235.355 860.624 235.355ZM871.791 209.669C856.436 209.669 848.06 203.527 848.06 190.963C848.06 179.795 856.157 172.816 877.375 170.861L906.132 168.628V175.887C906.132 197.105 892.731 209.669 871.791 209.669Z" fill="#233441"></path>
<path d="M950.482 162.485C950.482 206.319 977.843 235.355 1019.72 235.355C1055.74 235.355 1082.54 213.298 1086.73 181.191H1052.39C1048.76 196.268 1036.75 204.643 1019.72 204.643C997.945 204.643 984.543 188.45 984.543 162.485C984.543 136.521 999.061 120.048 1020.84 120.048C1037.03 120.048 1048.48 128.145 1052.39 143.78H1086.45C1082.82 110.556 1057.13 89.6164 1019.44 89.6164C978.68 89.6164 950.482 119.769 950.482 162.485Z" fill="#233441"></path>
<path d="M1145.02 231.725V122.282H1171.83V93.8042H1145.02V50.8087H1110.96V93.8042H1084.44V122.282H1110.96V231.725H1145.02Z" fill="#233441"></path>
<path d="M1239.38 235.355C1275.4 235.355 1300.52 217.207 1306.39 187.054H1274.84C1270.93 200.176 1258.64 207.435 1239.94 207.435C1217.32 207.435 1204.48 195.151 1201.97 170.861L1305.83 170.582V160.252C1305.83 117.256 1279.58 89.6164 1238.26 89.6164C1197.78 89.6164 1169.58 119.49 1169.58 162.765C1169.58 205.481 1198.34 235.355 1239.38 235.355ZM1238.54 117.536C1258.92 117.536 1272.05 130.099 1272.05 149.084H1202.81C1206.16 128.424 1218.44 117.536 1238.54 117.536Z" fill="#233441"></path>
<path d="M1405.68 93.2458C1400.09 91.8499 1395.35 91.2915 1390.6 91.2915C1372.18 91.2915 1359.05 100.505 1353.19 114.185L1351.24 94.0834H1319.13V231.725H1353.19V164.719C1353.19 137.917 1368.55 124.795 1393.11 124.795H1405.68V93.2458Z" fill="#233441"></path>
</svg>